<svg height='100px' width='100px'  fill="#34C8FF" xmlns="http://www.w3.org/2000/svg" data-name="Layer 1" viewBox="0 0 100 100" x="0px" y="0px"><title>Kitchenware</title><path d="M41.74683,29.43982c4.20257,1.94543,5.43219.91748,5.13061.71728C31.39783,19.87982,56.68073,16.359,45.85669,7.90479c-6.01709-4.0774-8.55286-2.67-8.55286-2.67C51.90259,15.60474,21.081,19.87341,41.74683,29.43982Z"></path><path d="M56.86194,29.73163c3.15191,1.4591,4.0741.68811,3.848.538-11.60974-7.70794,7.35248-10.34857-.76556-16.68921-4.51282-3.058-6.41468-2.00256-6.41468-2.00256C64.4787,19.35535,41.36255,22.55682,56.86194,29.73163Z"></path><path d="M26.50934,29.73163c3.15191,1.4591,4.07416.68811,3.848.538-11.60968-7.70794,7.35248-10.34857-.76556-16.68921-4.51282-3.058-6.41468-2.00256-6.41468-2.00256C34.1261,19.35535,11.01,22.55682,26.50934,29.73163Z"></path><path d="M93.02191,47.43182a11.12667,11.12667,0,0,0-7.2793-4.91211,18.49708,18.49708,0,0,0-8.51806.50757c.10535-.88214.21222-1.75763.31091-2.66968.65912-6.0899,1.18012-7.3753-3.44958-7.3753H8.91809c-4.6297,0-4.1087,1.2854-3.44958,7.3753C8.17633,65.37506,13.38287,79.03516,21.002,86.1272v5.551A3.32182,3.32182,0,0,0,24.32379,95H58.68024A3.32181,3.32181,0,0,0,62.002,91.67822V86.12714a30.3,30.3,0,0,0,5.40778-6.87354,37.36067,37.36067,0,0,0,6.55841-2.04834c9.875-3.834,17.81055-11.09375,20.2168-18.49463A12.86824,12.86824,0,0,0,93.02191,47.43182Zm-5.49414,9.11475C85.77289,61.944,79.30609,67.62372,71.435,70.67987c-.03418.01331-.065.0246-.09894.03772a109.45745,109.45745,0,0,0,4.816-19.91345c3.14319-1.33,6.04663-1.87122,8.16675-1.43091a4.11513,4.11513,0,0,1,2.8164,1.84668A6.03392,6.03392,0,0,1,87.52777,56.54657Z"></path></svg>